<?xml version="1.0" standalone="no"?>
<!DOCTYPE svg PUBLIC "-//W3C//DTD SVG 20010904//EN"
 "http://www.w3.org/TR/2001/REC-SVG-20010904/DTD/svg10.dtd">
<svg version="1.0" xmlns="http://www.w3.org/2000/svg"
 width="512.000000pt" height="512.000000pt" viewBox="0 0 512.000000 512.000000"
 preserveAspectRatio="xMidYMid meet">

<g transform="translate(0.000000,512.000000) scale(0.100000,-0.100000)"
fill="#000000" stroke="none">
<path d="M1458 4355 c-16 -9 -31 -28 -36 -47 -7 -27 -15 -33 -72 -52 -125 -40
-223 -115 -292 -220 -43 -66 -78 -168 -78 -226 0 -39 -20 -70 -45 -70 -35 0
-58 -78 -35 -120 12 -23 61 -40 116 -40 l44 0 0 -135 c0 -165 11 -222 56 -281
30 -39 34 -51 34 -107 l0 -62 -142 -40 c-228 -63 -298 -109 -357 -234 l-26
-56 -3 -517 -3 -518 -82 0 c-192 -1 -303 -37 -402 -131 -257 -243 -116 -684
235 -739 90 -14 4290 -14 4380 0 290 46 451 360 321 625 -58 118 -202 220
-330 234 l-56 6 -5 153 c-5 153 -5 154 -33 178 -23 19 -39 24 -87 24 l-59 0
-3 343 -3 342 -26 56 c-59 125 -129 171 -356 234 l-143 40 0 62 c0 56 4 68 34
107 45 59 56 116 56 281 l0 135 44 0 c55 0 104 17 116 40 23 42 0 120 -35 120
-25 0 -45 31 -45 70 0 58 -35 160 -78 226 -69 105 -167 180 -292 220 -57 19
-65 25 -72 52 -10 37 -57 67 -91 56 -33 -10 -67 -45 -67 -69 0 -18 -12 -25
-73 -43 -165 -48 -293 -177 -347 -351 -11 -35 -20 -82 -20 -106 0 -37 -3 -44
-25 -49 -63 -16 -86 -93 -40 -136 19 -18 40 -25 84 -28 l58 -4 5 -157 c5 -166
14 -203 63 -267 21 -27 25 -44 25 -97 l0 -63 -137 -39 c-76 -21 -162 -49 -190
-62 -99 -46 -172 -142 -193 -255 -6 -28 -10 -265 -10 -529 l0 -479 -50 0 -50
0 0 238 0 239 -26 24 c-23 22 -36 24 -130 27 l-104 4 0 213 c0 117 -4 235 -10
263 -21 113 -94 209 -193 255 -28 13 -114 41 -189 62 l-138 39 0 63 c0 53 4
70 25 97 49 64 58 101 63 267 l5 157 58 4 c44 3 65 10 84 28 46 43 23 120 -40
136 -22 5 -25 12 -25 49 0 24 -9 71 -20 106 -54 174 -182 303 -347 351 -61 18
-73 25 -73 43 0 26 -36 62 -70 69 -14 3 -37 -1 -52 -9z m-38 -430 l0 -175
-141 0 -142 0 6 52 c13 110 98 226 200 274 29 13 58 24 65 24 9 0 12 -42 12
-175z m227 155 c57 -26 140 -104 168 -160 19 -39 45 -130 45 -160 0 -6 -58
-10 -140 -10 l-140 0 0 175 c0 133 3 175 13 175 6 0 31 -9 54 -20z m1893 -155
l0 -175 -140 0 c-82 0 -140 4 -140 10 0 30 26 121 45 160 38 76 166 179 223
180 9 0 12 -42 12 -175z m237 151 c102 -48 187 -164 200 -274 l6 -52 -142 0
-141 0 0 175 c0 133 3 175 13 175 6 0 35 -11 64 -24z m-2007 -643 l0 -146 -43
-41 c-24 -23 -72 -58 -107 -78 -55 -32 -73 -38 -124 -38 -57 0 -65 3 -154 62
-51 34 -97 69 -103 79 -5 10 -9 83 -9 163 l0 146 270 0 270 0 0 -147z m2120 1
c0 -80 -4 -153 -9 -163 -6 -10 -52 -45 -103 -79 -89 -59 -97 -62 -155 -62 -57
0 -66 3 -151 59 -49 32 -97 69 -106 82 -13 19 -16 50 -16 166 l0 143 270 0
270 0 0 -146z m-2210 -478 l0 -54 -50 -17 c-50 -17 -188 -23 -232 -10 -74 21
-78 25 -78 76 0 27 2 49 4 49 2 0 21 -8 42 -17 60 -26 217 -24 269 3 22 12 41
22 43 23 1 0 2 -23 2 -53z m1940 10 c66 0 107 5 134 17 21 9 40 17 42 17 2 0
4 -22 4 -49 0 -51 -4 -55 -78 -76 -44 -13 -182 -7 -232 10 l-50 17 0 53 0 52
43 -21 c34 -17 60 -21 137 -20z m-2584 -410 c-62 -54 -61 -40 -64 -503 l-3
-423 -90 0 -89 0 0 500 c0 418 2 506 14 529 24 46 81 88 143 106 32 9 69 20
83 24 l25 8 3 -110 c3 -107 2 -111 -22 -131z m3157 203 c43 -11 101 -59 123
-100 11 -23 14 -89 14 -354 l0 -325 -89 0 -89 0 -4 248 c-3 239 -4 248 -26
285 -13 20 -32 42 -43 47 -17 10 -19 23 -19 124 l0 114 48 -14 c26 -8 64 -19
85 -25z m-2163 11 c88 -26 130 -55 158 -110 21 -42 22 -56 22 -272 l0 -228
-95 0 -95 0 0 157 c0 148 -1 158 -25 198 -13 24 -31 45 -40 49 -12 4 -15 26
-15 116 0 76 4 110 11 110 7 0 42 -9 79 -20z m1150 -90 c0 -90 -3 -112 -15
-116 -9 -4 -27 -25 -40 -49 l-25 -42 0 -421 0 -422 -95 0 -95 0 0 493 c0 491
0 493 23 537 28 55 58 77 144 106 109 36 103 41 103 -86z m-1865 46 c43 -17
70 -21 185 -20 138 0 135 0 253 49 15 6 17 -1 17 -74 l0 -81 -270 0 -270 0 0
81 c0 73 2 80 18 74 9 -4 40 -17 67 -29z m2120 1 c42 -18 72 -21 185 -21 115
-1 142 3 185 20 28 12 58 25 68 29 15 6 17 -1 17 -74 l0 -81 -270 0 -270 0 0
81 c0 73 2 80 18 74 9 -4 40 -17 67 -28z m-1575 -432 l0 -135 -179 0 c-184 0
-234 -8 -251 -40 -6 -11 -10 -120 -10 -254 l0 -236 -140 0 -140 0 0 400 0 400
360 0 360 0 0 -135z m2120 -90 l0 -225 -236 0 -236 0 -29 -29 -29 -29 0 -146
0 -146 -95 0 -95 0 0 400 0 400 360 0 360 0 0 -225z m-1500 -395 l0 -180 -450
0 -450 0 0 180 0 180 450 0 450 0 0 -180z m2030 -90 l0 -90 -445 0 -445 0 0
90 0 90 445 0 445 0 0 -90z m242 -270 c59 -17 130 -71 162 -124 39 -63 48
-162 21 -233 -22 -57 -75 -117 -129 -146 l-41 -22 -2205 0 -2205 0 -41 22
c-54 29 -107 89 -129 146 -27 71 -18 170 21 233 31 51 103 107 158 123 45 13
4340 14 4388 1z"/>
<path d="M380 1339 c-166 -67 -108 -324 70 -307 87 9 143 71 144 159 0 107
-115 187 -214 148z"/>
<path d="M910 1339 c-90 -36 -129 -153 -77 -230 39 -58 84 -81 145 -77 31 3
64 13 80 24 32 24 72 98 72 134 0 14 -10 46 -22 70 -36 71 -127 107 -198 79z"/>
<path d="M1435 1336 c-147 -65 -113 -285 47 -303 87 -10 166 53 175 140 12
116 -116 210 -222 163z"/>
<path d="M1962 1333 c-101 -49 -122 -175 -43 -254 61 -62 151 -65 216 -8 84
74 64 213 -38 259 -51 24 -92 25 -135 3z"/>
<path d="M2492 1334 c-18 -10 -45 -33 -60 -52 -22 -29 -27 -46 -27 -93 0 -62
17 -94 69 -133 39 -29 133 -29 172 0 94 70 98 192 7 261 -43 33 -114 41 -161
17z"/>
<path d="M3020 1328 c-59 -30 -93 -93 -87 -157 5 -47 27 -83 71 -115 39 -29
133 -29 172 0 44 32 66 68 71 116 14 126 -113 215 -227 156z"/>
<path d="M3550 1328 c-156 -80 -85 -315 88 -295 51 6 87 29 120 78 20 28 23
43 20 87 -10 120 -122 184 -228 130z"/>
<path d="M4080 1328 c-48 -25 -90 -89 -90 -138 0 -36 40 -110 72 -134 16 -11
49 -21 80 -24 44 -3 59 0 88 20 104 71 108 197 9 271 -42 30 -106 33 -159 5z"/>
<path d="M4613 1330 c-143 -73 -102 -282 57 -298 61 -6 119 25 149 78 77 137
-67 290 -206 220z"/>
</g>
</svg>
